<svg width="32" height="32" viewBox="0 0 32 32" fill="none" xmlns="http://www.w3.org/2000/svg">
  <defs>
    <linearGradient id="gradient" x1="0%" y1="0%" x2="100%" y2="100%">
      <stop offset="0%" style="stop-color:#a855f7;stop-opacity:1" />
      <stop offset="100%" style="stop-color:#ec4899;stop-opacity:1" />
    </linearGradient>
  </defs>
  
  <!-- Stylized flower/lotus representing femininity and cycles -->
  <path d="M16 4 C20 4 24 8 24 12 C24 16 20 20 16 20 C12 20 8 16 8 12 C8 8 12 4 16 4 Z" fill="url(#gradient)" opacity="0.2"/>
  
  <!-- Inner petals -->
  <path d="M16 6 C18.5 6 21 8.5 21 11 C21 13.5 18.5 16 16 16 C13.5 16 11 13.5 11 11 C11 8.5 13.5 6 16 6 Z" fill="url(#gradient)" opacity="0.4"/>
  
  <!-- Center -->
  <circle cx="16" cy="11" r="3" fill="url(#gradient)"/>
  
  <!-- Stem -->
  <path d="M16 16 L16 28 C16 29.1 15.1 30 14 30 L18 30 C16.9 30 16 29.1 16 28 L16 16 Z" fill="url(#gradient)" opacity="0.6"/>
  
  <!-- Leaf -->
  <path d="M12 22 C10 20 10 18 12 18 C14 18 16 20 16 22 C16 24 14 24 12 22 Z" fill="url(#gradient)" opacity="0.5"/>
  
  <!-- Small accent dots representing cycle phases -->
  <circle cx="22" cy="8" r="1" fill="url(#gradient)" opacity="0.7"/>
  <circle cx="24" cy="12" r="1" fill="url(#gradient)" opacity="0.5"/>
  <circle cx="22" cy="16" r="1" fill="url(#gradient)" opacity="0.3"/>
</svg>